<?xml version="1.0" standalone="no"?>
<!DOCTYPE svg PUBLIC "-//W3C//DTD SVG 20010904//EN"
 "http://www.w3.org/TR/2001/REC-SVG-20010904/DTD/svg10.dtd">
<svg version="1.0" xmlns="http://www.w3.org/2000/svg"
 width="260.000000pt" height="260.000000pt" viewBox="0 0 260.000000 260.000000"
 preserveAspectRatio="xMidYMid meet">
<metadata>
Created by potrace 1.14, written by Peter Selinger 2001-2017
</metadata>
<g transform="translate(0.000000,260.000000) scale(0.100000,-0.100000)"
fill="#000000" stroke="none">
<path d="M2 1301 c-1 -717 0 -1302 3 -1299 2 2 5 215 5 472 1 341 4 465 12
460 7 -5 8 -3 2 7 -5 8 -9 28 -10 44 -1 17 1 24 3 17 3 -6 9 -10 14 -7 5 4 1
18 -8 33 -9 15 -13 24 -8 20 4 -4 15 -2 24 5 14 11 14 10 2 -5 -11 -15 -11
-21 -1 -33 7 -8 9 -15 4 -15 -5 0 -1 -7 9 -15 15 -10 17 -21 12 -47 -5 -25 -4
-29 5 -18 8 11 9 7 5 -18 -8 -46 -8 -45 -6 -60 1 -8 6 -10 14 -6 7 5 6 0 -3
-11 -9 -11 -10 -16 -3 -11 8 4 13 1 13 -9 0 -9 -4 -13 -10 -10 -6 3 -7 -1 -3
-10 3 -9 9 -13 12 -8 14 18 29 11 26 -13 -2 -21 1 -24 19 -18 17 5 19 4 9 -7
-18 -18 -16 -29 5 -30 14 0 14 -2 -3 -9 -11 -5 -14 -9 -7 -9 7 -1 10 -5 7 -11
-3 -5 1 -10 10 -10 9 0 13 -5 10 -10 -4 -6 -12 -7 -18 -3 -8 5 -8 2 0 -9 7 -8
10 -17 7 -21 -3 -3 6 -4 20 -3 31 4 37 -4 38 -44 1 -18 5 -27 12 -23 7 4 7 2
-1 -8 -9 -11 -8 -20 2 -39 17 -29 20 -19 4 13 -9 20 -9 20 4 5 8 -10 17 -14
21 -11 4 4 3 -4 -3 -19 -9 -24 -8 -26 14 -24 21 3 23 0 20 -32 -2 -20 0 -30 4
-24 5 9 14 6 29 -8 12 -12 27 -18 32 -15 6 3 7 -1 4 -9 -3 -9 -10 -13 -16 -10
-5 3 -4 -3 3 -13 7 -13 21 -19 36 -17 20 2 22 0 12 -12 -10 -12 -9 -13 4 -9 8
4 18 1 22 -5 3 -6 3 -9 -2 -8 -4 2 -9 -1 -10 -7 -2 -5 8 -10 21 -9 24 1 31
-23 11 -39 -6 -5 -4 -7 5 -4 8 2 14 10 12 17 -2 10 1 10 15 -1 26 -21 32 -30
28 -51 -2 -10 0 -16 6 -13 5 4 7 11 4 16 -4 5 1 9 10 9 10 0 15 -7 13 -17 -2
-10 3 -17 10 -15 6 1 12 -2 12 -8 0 -5 4 -10 10 -10 5 0 8 6 6 13 -1 6 -1 9 1
4 3 -4 9 -4 15 -1 6 4 5 -2 -1 -15 -11 -19 -8 -25 12 -22 4 1 10 -6 13 -14 5
-13 9 -13 22 -3 9 7 13 8 9 2 -3 -6 5 -17 19 -25 21 -11 27 -11 33 0 6 10 10
9 15 -4 8 -22 7 -33 -2 -19 -5 9 -11 7 -21 -4 -12 -13 -12 -14 0 -10 8 3 20
-2 27 -11 10 -14 11 -14 7 -1 -4 11 1 16 16 17 16 2 18 -1 9 -12 -9 -11 -7
-12 12 -8 18 4 20 3 8 -6 -9 -7 -10 -11 -3 -11 6 0 15 5 19 11 4 8 12 3 21
-12 8 -13 12 -16 9 -6 -5 15 -2 16 14 7 10 -5 22 -15 26 -22 4 -7 3 -8 -4 -4
-7 4 -12 2 -12 -4 0 -6 -5 -8 -12 -4 -7 4 -8 3 -4 -4 9 -15 1005 -16 1026 -1
13 10 13 10 0 6 -10 -3 -15 3 -15 18 0 16 5 22 17 20 10 -2 20 0 23 4 2 5 23
8 45 7 27 -1 40 2 40 11 0 7 10 23 22 35 16 16 20 17 15 5 -3 -9 -2 -17 3 -17
10 0 14 15 11 34 -1 5 5 4 13 -4 12 -9 16 -9 16 -1 0 7 5 9 10 6 6 -4 7 -12 3
-18 -3 -7 3 -3 15 7 25 21 31 36 7 16 -10 -9 -15 -9 -15 -1 0 6 5 12 10 12 6
1 19 3 30 4 11 1 22 3 25 4 3 0 0 11 -6 23 -12 22 -11 23 8 5 17 -15 22 -16
32 -3 10 11 8 17 -6 26 -16 10 -16 11 0 6 21 -7 49 3 42 14 -3 5 4 11 15 15
11 3 20 11 20 16 0 6 -5 7 -12 3 -7 -5 -8 -3 -3 5 5 9 10 10 18 2 18 -18 31
-13 16 6 -10 11 -10 14 -1 9 8 -5 12 -1 12 11 1 14 4 13 15 -7 l15 -25 -5 33
c-4 25 -2 32 10 32 9 0 13 -5 10 -10 -3 -5 -4 -10 -1 -10 3 0 10 10 17 21 9
17 8 20 -2 14 -8 -5 -10 -4 -5 4 4 6 11 9 16 6 4 -3 11 6 14 19 3 14 15 28 26
31 11 3 20 11 20 17 0 6 -6 6 -15 -2 -10 -9 -15 -9 -15 -1 0 6 5 11 11 11 5 0
7 6 3 13 -6 9 -5 9 7 0 28 -22 50 16 27 46 -12 14 -11 15 5 2 17 -13 22 -8 19
20 -1 3 5 6 13 6 10 0 11 -5 4 -18 -5 -10 -9 -24 -8 -31 0 -7 8 5 17 28 11 27
22 39 32 37 13 -4 13 -3 1 5 -8 6 -15 20 -16 31 -1 15 2 18 10 11 7 -6 16 -5
23 2 9 9 7 18 -11 37 -17 20 -18 22 -2 9 18 -15 22 -15 40 -1 20 15 20 15 -3
10 -12 -3 -20 -1 -16 4 3 5 12 9 21 9 12 0 13 3 4 14 -9 11 -9 16 0 22 8 5 9
3 4 -6 -5 -9 -4 -11 3 -6 7 4 12 20 12 37 0 16 4 29 10 29 5 0 7 -8 4 -18 -4
-12 -3 -14 4 -4 5 8 8 24 6 38 -1 13 2 22 7 18 5 -3 7 -10 4 -15 -4 -5 -2 -9
3 -9 5 0 10 11 10 25 0 16 -5 22 -12 18 -7 -5 -7 -2 1 8 14 17 15 109 1 109
-6 0 -8 7 -4 15 3 8 2 15 -3 15 -5 0 -11 -9 -14 -21 -3 -12 -10 -18 -15 -15
-6 3 -13 0 -15 -6 -4 -10 -6 -10 -6 0 -1 7 -6 10 -13 6 -7 -4 -8 -3 -4 5 4 6
12 9 17 6 5 -4 9 -1 9 4 0 14 -17 14 -25 1 -4 -6 -12 -7 -18 -3 -22 13 -39 13
-28 -1 6 -7 7 -17 3 -22 -4 -4 1 -2 11 5 9 7 17 9 17 3 0 -5 -6 -12 -12 -14
-18 -7 -39 2 -33 12 3 5 0 12 -6 16 -8 4 -9 3 -5 -4 4 -7 2 -12 -4 -12 -6 0
-9 -4 -5 -9 3 -5 0 -13 -6 -17 -7 -4 -9 -3 -5 4 4 7 -1 10 -14 9 -11 -1 -20
-6 -20 -11 0 -5 -2 -7 -5 -4 -3 3 -2 13 1 22 5 12 9 14 14 6 5 -8 10 -7 18 3
9 11 8 13 -7 12 -27 -2 -53 -26 -47 -42 4 -8 1 -11 -5 -8 -6 4 -7 14 -4 24 12
30 14 52 4 46 -5 -4 -7 -10 -4 -14 6 -11 -33 -46 -42 -38 -3 4 -16 -1 -27 -10
-15 -14 -18 -14 -8 -2 6 9 8 20 4 24 -4 5 0 4 8 0 12 -7 13 -6 3 7 -7 8 -9 19
-5 24 4 4 -1 2 -10 -5 -19 -14 -42 -6 -32 11 4 7 2 8 -5 4 -9 -6 -9 -11 0 -22
9 -11 8 -15 -5 -20 -9 -3 -13 -11 -9 -18 3 -6 3 -8 -2 -4 -4 4 -15 2 -24 -4
-9 -7 -5 0 8 15 27 30 19 37 -13 9 -20 -17 -20 -17 -4 9 13 20 14 26 3 26 -8
0 -12 -4 -10 -8 3 -3 -3 -13 -12 -20 -14 -12 -15 -11 -10 11 4 14 4 19 1 13
-3 -7 -10 -13 -15 -13 -6 0 -8 4 -4 9 3 5 1 12 -4 15 -10 7 -9 -20 2 -30 4 -4
7 -12 7 -18 0 -5 -12 6 -26 25 -15 19 -24 26 -20 16 4 -13 2 -17 -6 -14 -7 2
-12 10 -10 16 2 9 -3 9 -17 1 -24 -12 -34 -13 -27 -1 6 9 -42 6 -72 -4 -7 -3
-11 -1 -8 4 9 14 -27 23 -36 9 -8 -10 -11 -10 -15 0 -2 6 -9 12 -14 12 -6 0
-8 -4 -5 -8 2 -4 -10 -8 -28 -8 -20 0 -33 5 -33 13 0 7 4 13 9 13 4 0 8 -6 8
-12 0 -10 3 -9 9 1 6 9 10 10 14 2 4 -7 5 -8 4 -1 -2 7 -7 12 -12 12 -6 0 -18
4 -29 10 -13 7 -16 7 -12 -1 4 -6 2 -11 -3 -11 -6 0 -11 5 -11 11 0 9 -4 9
-13 0 -11 -8 -18 -7 -31 7 -9 10 -13 22 -9 27 5 4 2 5 -5 1 -7 -4 -10 -11 -7
-16 3 -5 0 -12 -6 -16 -8 -5 -9 -3 -4 6 6 10 4 12 -8 7 -9 -3 -19 -1 -23 5 -4
6 -3 8 4 4 6 -3 13 -2 16 3 7 11 -13 9 -33 -3 -11 -7 -13 -5 -9 5 4 11 -1 14
-23 13 -16 -1 -29 2 -29 8 0 5 -4 7 -8 4 -12 -7 -38 12 -29 21 5 4 12 1 17 -7
6 -10 10 -11 10 -3 0 11 -30 33 -45 33 -3 0 -4 -10 -1 -22 3 -13 3 -17 0 -10
-3 6 -11 9 -16 6 -7 -5 -8 -2 -3 6 6 10 4 12 -8 7 -10 -3 -17 -2 -17 3 0 6 5
10 12 10 6 0 8 3 5 6 -4 4 -13 1 -22 -6 -12 -10 -15 -10 -15 4 0 10 -5 14 -10
11 -6 -4 -7 -11 -4 -17 4 -6 0 -6 -13 1 -11 6 -24 7 -28 3 -5 -4 -5 -1 -1 6 4
7 1 12 -8 12 -9 0 -16 5 -16 11 0 7 10 5 25 -5 31 -20 41 -21 21 -1 -8 8 -21
15 -28 15 -10 0 -9 3 2 10 9 6 10 10 3 10 -6 0 -19 -7 -27 -16 -14 -13 -16
-13 -16 -1 0 9 6 18 13 20 9 4 9 6 0 6 -25 2 -28 1 -28 -9 0 -5 -4 -9 -10 -7
-5 1 -9 8 -7 15 3 11 -1 11 -18 2 -20 -11 -21 -10 -15 12 7 22 7 23 -8 3 -14
-19 -16 -19 -22 -3 -4 10 -12 15 -19 11 -6 -4 -6 -1 2 9 10 13 10 17 -3 22 -9
3 -13 2 -10 -4 3 -6 -1 -10 -10 -10 -8 0 -18 7 -21 15 -4 8 -10 15 -16 15 -5
0 -6 -4 -3 -10 3 -5 2 -10 -2 -10 -5 0 -14 9 -21 20 -15 24 -34 18 -25 -8 4
-13 2 -13 -10 3 -9 11 -17 16 -17 11 0 -13 -30 15 -30 28 0 6 5 4 10 -4 8 -13
10 -12 10 3 0 19 -11 22 -27 6 -8 -8 -13 -7 -18 2 -6 8 -4 10 5 4 9 -5 11 -4
6 4 -6 9 -11 9 -24 -1 -14 -11 -15 -10 -8 6 7 20 7 20 -15 0 -16 -14 -20 -15
-18 -4 2 8 -1 15 -6 15 -6 0 -9 -4 -7 -9 2 -5 -3 -5 -10 1 -7 6 -21 9 -31 8
-9 -2 -15 1 -11 6 3 5 10 7 15 4 5 -4 9 -2 9 3 0 6 -7 13 -16 16 -8 3 -13 2
-10 -2 3 -5 -8 -9 -24 -9 -17 0 -30 4 -30 9 0 5 -4 7 -9 3 -5 -3 -12 -1 -15 4
-7 11 13 9 32 -2 7 -5 12 -3 12 5 0 8 -14 14 -35 15 -25 1 -33 -2 -28 -10 4
-7 0 -7 -10 2 -9 7 -14 17 -11 22 8 14 -3 10 -20 -7 -15 -14 -16 -14 -16 3 0
11 -3 14 -8 7 -4 -6 -17 -13 -30 -17 -20 -5 -22 -3 -10 11 11 13 11 14 -1 7
-11 -6 -13 -4 -8 9 4 10 3 15 -3 11 -6 -3 -10 -13 -10 -21 0 -12 -2 -12 -14
-2 -8 7 -11 17 -8 22 3 5 0 6 -7 2 -8 -5 -9 -12 -2 -20 7 -8 5 -12 -9 -12 -10
0 -17 3 -15 6 1 3 -4 12 -13 20 -14 13 -15 12 -9 -3 3 -9 1 -19 -5 -23 -7 -4
-8 -3 -4 4 4 7 2 12 -3 12 -6 0 -11 -5 -11 -12 0 -6 -3 -8 -6 -5 -4 4 -1 14 6
22 11 13 11 18 0 28 -10 10 -12 9 -7 -5 4 -12 1 -18 -9 -18 -8 0 -12 -5 -8
-11 5 -8 1 -8 -14 0 -15 8 -21 8 -24 -1 -3 -8 -7 -6 -11 4 -4 12 -1 16 13 13
10 -2 24 4 31 13 11 14 11 15 -1 5 -11 -10 -16 -9 -27 5 -12 16 -13 16 -7 -1
7 -19 -14 -21 -29 -2 -5 6 -7 3 -3 -7 3 -12 0 -18 -9 -18 -9 0 -13 7 -10 18 3
9 -2 2 -10 -15 -15 -32 -30 -47 -19 -20 3 8 -2 14 -11 14 -8 0 -15 -4 -15 -9
0 -5 -4 -6 -10 -3 -5 3 -10 1 -10 -5 0 -6 -5 -8 -11 -4 -16 10 20 29 64 33 4
1 7 6 7 12 0 5 -4 8 -9 4 -5 -3 -12 -1 -16 5 -3 5 -12 10 -18 10 -8 0 -8 -3 2
-9 10 -7 10 -10 1 -16 -7 -4 -17 -1 -22 6 -8 11 -9 10 -4 -4 3 -10 2 -15 -3
-12 -5 3 -16 -4 -24 -16 -9 -13 -17 -16 -22 -10 -3 6 -1 11 5 11 6 0 8 5 4 12
-4 6 -3 8 4 4 16 -9 26 14 13 27 -9 9 -11 8 -5 -6 7 -19 -14 -21 -29 -2 -5 6
-7 3 -3 -7 3 -12 0 -18 -9 -18 -9 0 -13 7 -10 18 3 9 -2 2 -10 -15 -8 -18 -17
-33 -19 -33 -8 0 -1 35 9 42 5 4 6 10 2 15 -10 9 -28 -18 -20 -30 3 -5 0 -7
-8 -5 -8 3 -13 12 -11 22 2 9 -2 16 -8 16 -6 0 -8 -5 -4 -12 5 -8 1 -9 -12 -5
-18 7 -18 6 -1 -7 22 -17 22 -27 0 -19 -9 4 -14 2 -11 -3 4 -5 -16 -10 -43
-10 -43 -1 -48 0 -37 14 12 13 11 14 -9 2 -12 -8 -19 -19 -15 -25 3 -5 -1 -4
-10 3 -11 9 -18 10 -23 2 -3 -6 -12 -7 -18 -3 -18 11 -38 12 -31 2 3 -5 10 -7
15 -4 5 4 9 1 9 -4 0 -14 -6 -14 -33 1 -20 10 -21 10 -8 -6 8 -9 10 -16 5 -15
-20 3 -35 -2 -29 -10 3 -5 1 -13 -5 -16 -6 -4 -9 -1 -8 6 2 6 -3 14 -10 16 -6
3 -10 -1 -9 -9 2 -7 2 -10 0 -5 -3 4 -8 5 -13 2 -4 -2 -8 68 -9 156 -2 130 0
159 11 153 10 -6 11 -5 1 7 -10 12 -13 135 -16 510 -1 272 -3 -93 -5 -810z
m1206 -106 c-3 -3 -9 2 -12 12 -6 14 -5 15 5 6 7 -7 10 -15 7 -18z m97 -55 c3
-5 1 -10 -4 -10 -6 0 -11 5 -11 10 0 6 2 10 4 10 3 0 8 -4 11 -10z m-1238
-115 c0 -8 -4 -12 -9 -9 -5 3 -6 10 -3 15 9 13 12 11 12 -6z m1753 -81 c0 -8
-19 -13 -24 -6 -3 5 1 9 9 9 8 0 15 -2 15 -3z m214 -23 c3 -5 -1 -11 -9 -14
-9 -4 -12 -1 -8 9 6 16 10 17 17 5z m39 -22 c-8 -8 -13 -7 -18 2 -5 8 -4 10 3
5 7 -4 12 -2 12 5 0 7 3 9 7 6 4 -4 2 -12 -4 -18z m201 -4 c-4 -8 -11 -12 -16
-9 -6 4 -5 10 3 15 19 12 19 11 13 -6z m-2084 -251 c0 -8 -19 -13 -24 -6 -3 5
1 9 9 9 8 0 15 -2 15 -3z m2310 -48 c0 -3 -4 -8 -10 -11 -5 -3 -10 -1 -10 4 0
6 5 11 10 11 6 0 10 -2 10 -4z m-50 -56 c0 -5 -5 -10 -11 -10 -5 0 -7 5 -4 10
3 6 8 10 11 10 2 0 4 -4 4 -10z m-2160 -44 c0 -2 -7 -7 -16 -10 -8 -3 -12 -2
-9 4 6 10 25 14 25 6z m31 -60 c5 3 9 0 9 -6 0 -15 -23 -7 -26 8 -1 7 0 8 3 2
2 -5 9 -8 14 -4z m1849 -196 c0 -5 -5 -10 -11 -10 -5 0 -7 5 -4 10 3 6 8 10
11 10 2 0 4 -4 4 -10z m-1629 -33 c-10 -9 -11 -8 -5 6 3 10 9 15 12 12 3 -3 0
-11 -7 -18z m1609 -11 c0 -3 -4 -8 -10 -11 -5 -3 -10 -1 -10 4 0 6 5 11 10 11
6 0 10 -2 10 -4z m-1527 -33 c-4 -10 -9 -10 -18 -3 -6 5 -16 6 -20 2 -5 -4 -6
-2 -2 3 8 16 46 13 40 -2z m51 -34 c-3 -5 -10 -7 -15 -3 -5 3 -7 10 -3 15 3 5
10 7 15 3 5 -3 7 -10 3 -15z"/>
<path d="M1087 2583 c4 -9 2 -14 -3 -10 -6 3 -16 1 -24 -4 -12 -7 -11 -8 5 -6
11 1 26 6 33 11 11 7 12 4 3 -12 -6 -11 -11 -23 -11 -25 0 -7 39 -2 65 8 14 5
16 4 6 -3 -11 -8 -9 -14 8 -31 12 -12 16 -21 9 -21 -9 0 -8 -4 2 -10 8 -5 20
-10 25 -10 6 0 3 5 -5 10 -13 9 -13 10 0 10 8 0 21 -9 28 -21 10 -15 16 -18
26 -10 7 6 17 7 21 3 5 -4 5 -2 2 5 -5 7 -1 10 10 8 10 -2 20 -4 22 -4 2 -1
-4 -11 -15 -23 -10 -13 -12 -17 -4 -10 8 6 25 12 38 12 19 0 22 -4 17 -21 -6
-19 -5 -20 8 -8 8 8 13 17 11 20 -2 3 3 6 11 6 8 0 13 -5 12 -11 -1 -6 4 -10
11 -8 8 1 11 -2 7 -8 -3 -6 -11 -7 -17 -4 -7 4 -8 2 -4 -4 5 -9 13 -9 29 0 20
10 21 10 8 -6 -13 -15 -12 -16 13 -6 15 5 25 6 22 1 -3 -5 1 -11 9 -15 8 -3
15 0 15 7 0 7 8 0 18 -15 9 -16 23 -28 32 -29 10 0 9 -3 -5 -10 -16 -8 -15 -8
8 -4 22 4 27 3 21 -7 -4 -7 -4 -10 1 -6 4 4 14 0 22 -10 13 -15 13 -15 4 5 -8
16 -8 24 1 29 6 4 8 3 5 -3 -4 -6 0 -13 8 -17 9 -3 12 -12 9 -23 -5 -14 -4
-15 4 -4 6 8 8 20 5 28 -3 7 0 13 5 13 6 0 9 -9 7 -20 -2 -12 2 -23 10 -27 8
-3 12 -9 9 -14 -3 -5 2 -6 11 -2 13 5 14 7 3 14 -9 6 -9 9 -1 9 7 0 17 -8 22
-19 6 -10 18 -21 26 -25 9 -3 13 -2 10 4 -4 6 6 10 23 10 22 0 31 -6 35 -22 5
-18 9 -19 21 -9 29 24 62 1 56 -38 -1 -10 3 -9 16 4 17 17 18 17 26 -1 6 -15
7 -13 5 9 -5 33 1 35 12 5 10 -28 76 -38 67 -10 -5 15 -4 15 8 0 16 -21 32
-23 39 -5 3 6 6 2 6 -10 1 -13 5 -23 10 -23 5 0 7 10 5 23 l-5 22 12 -22 c13
-25 32 -32 23 -9 -3 8 -1 17 5 21 7 3 8 0 5 -10 -5 -11 -2 -14 12 -9 16 5 15
2 -4 -15 -21 -18 -21 -20 -3 -18 11 0 17 5 15 9 -6 10 10 11 20 1 10 -11 46
-14 46 -4 0 5 -10 8 -22 7 -11 0 -23 6 -25 14 -3 9 -1 11 4 5 15 -19 36 -17
29 2 -5 16 -4 15 9 -1 8 -11 15 -24 15 -29 0 -5 6 -7 14 -4 8 3 20 -1 26 -9 7
-8 18 -14 24 -14 6 0 4 5 -4 10 -14 9 -6 15 15 10 37 -9 53 -7 48 6 -4 10 0
12 13 7 18 -7 18 -6 2 11 -10 9 -21 15 -26 13 -4 -3 -15 1 -25 8 -16 11 -16
13 -2 19 9 3 13 10 10 16 -3 5 -1 10 6 10 7 0 9 3 6 6 -4 4 -14 1 -23 -7 -15
-12 -16 -11 -10 9 6 17 4 21 -8 16 -9 -4 -23 -1 -31 6 -8 6 -18 9 -23 6 -6 -3
-9 9 -7 28 2 34 2 34 -22 19 -23 -15 -24 -15 -30 6 -4 16 -11 21 -24 18 -10
-3 -17 0 -16 7 1 6 -4 10 -10 9 -7 -2 -13 2 -13 8 0 6 9 8 21 4 15 -5 19 -4
15 4 -4 6 -18 11 -32 11 -13 0 -24 4 -24 10 0 5 -8 6 -17 3 -16 -6 -17 -5 -3
12 14 17 14 18 -8 6 -22 -12 -23 -11 -17 11 3 12 3 19 -2 13 -4 -5 -17 -11
-28 -13 -18 -2 -18 -2 -2 8 19 12 23 30 6 30 -5 0 -7 -4 -4 -10 3 -5 -1 -10
-10 -10 -10 0 -13 5 -9 13 5 7 0 6 -11 -3 -11 -9 -16 -10 -11 -2 5 8 0 12 -14
12 -13 0 -19 4 -14 12 4 6 3 8 -4 4 -5 -3 -20 6 -32 21 -16 21 -19 23 -10 6
15 -32 -2 -28 -22 5 l-17 27 -1 -25 c0 -19 -2 -22 -9 -10 -6 8 -7 18 -4 24 3
5 1 6 -5 2 -6 -3 -24 -8 -40 -10 -24 -2 -29 0 -24 12 4 11 2 13 -9 6 -16 -10
-78 -14 -77 -5 2 18 -3 31 -13 31 -5 0 -7 -4 -4 -10 3 -5 1 -10 -4 -10 -13 0
-14 11 -3 25 10 14 32 17 33 5 1 -5 2 -16 3 -22 0 -7 7 -13 15 -13 8 0 16 6
19 13 2 6 -3 12 -11 12 -9 0 -17 5 -19 12 -5 14 -78 19 -78 5 0 -5 7 -6 16 -3
8 3 12 2 9 -4 -7 -11 -41 -8 -52 5 -5 4 -2 5 5 1 6 -4 12 -3 12 3 0 6 -89 10
-249 10 -224 -1 -249 -2 -244 -16z m34 -36 c-10 -9 -11 -8 -5 6 3 10 9 15 12
12 3 -3 0 -11 -7 -18z m69 -28 c0 -6 7 -8 18 -4 12 4 14 3 6 -5 -6 -6 -18 -8
-27 -4 -18 7 -23 24 -7 24 6 0 10 -5 10 -11z m62 -38 c8 11 9 11 6 1 -4 -16
-22 -18 -24 -2 -2 7 -1 6 3 -1 4 -8 8 -7 15 2z m637 -14 c0 -9 -2 -9 -5 0 -3
7 -13 9 -22 6 -14 -4 -14 -3 -2 5 16 12 30 7 29 -11z m-234 -159 c-9 -6 -19
-7 -22 -4 -4 3 -1 6 6 6 7 0 9 4 6 10 -4 6 1 7 11 3 15 -6 15 -7 -1 -15z m65
-28 c-8 -5 -19 -10 -25 -10 -5 0 -3 5 5 10 8 5 20 10 25 10 6 0 3 -5 -5 -10z
m67 -32 c-3 -8 -6 -5 -6 6 -1 11 2 17 5 13 3 -3 4 -12 1 -19z m163 -36 c0 -5
-7 -9 -15 -9 -8 0 -12 4 -9 9 3 4 9 8 15 8 5 0 9 -4 9 -8z m339 -37 c7 3 8 0
5 -9 -8 -20 -12 -20 -30 -2 -18 19 -18 32 1 16 8 -6 19 -9 24 -5z m-69 -5 c8
-5 12 -11 10 -14 -3 -2 -14 2 -24 10 -22 15 -10 19 14 4z"/>
<path d="M1715 2559 c-4 -6 -5 -12 -2 -15 2 -3 7 2 10 11 7 17 1 20 -8 4z"/>
<path d="M1365 2419 c-4 -6 -5 -12 -2 -15 2 -3 7 2 10 11 7 17 1 20 -8 4z"/>
<path d="M677 2373 c-4 -3 1 -15 10 -25 14 -15 14 -19 3 -16 -8 2 -21 12 -28
23 -10 15 -12 16 -8 3 3 -10 0 -20 -6 -24 -7 -4 -8 -3 -4 4 4 7 1 13 -8 13
-25 2 -30 4 -44 12 -7 5 -19 2 -28 -7 -9 -9 -20 -14 -25 -11 -5 4 -9 1 -9 -5
0 -6 -5 -8 -12 -4 -7 4 -8 3 -4 -4 5 -9 15 -8 35 3 16 8 32 11 36 7 5 -4 5 -1
0 7 -6 10 -4 12 4 7 7 -5 9 -11 6 -15 -6 -6 -10 -7 -36 -10 -5 0 -8 -5 -5 -9
3 -5 -8 -8 -24 -7 -22 1 -27 -2 -25 -16 2 -10 -1 -22 -7 -25 -7 -4 -8 -2 -4 4
4 7 2 12 -4 12 -6 0 -8 5 -4 12 4 7 3 8 -4 4 -7 -4 -8 -15 -2 -30 7 -20 6 -24
-8 -22 -9 2 -18 8 -20 15 -3 8 -9 6 -18 -7 -8 -11 -11 -28 -8 -36 5 -12 2 -15
-12 -9 -11 4 -15 3 -10 -5 3 -6 2 -13 -3 -16 -5 -4 -13 -1 -17 5 -5 8 -3 9 6
4 9 -6 11 -4 6 4 -6 9 -12 9 -25 -3 -10 -9 -20 -14 -23 -11 -2 3 -2 -9 0 -26
3 -21 9 -29 19 -25 9 4 11 2 7 -6 -5 -8 1 -9 20 -4 15 4 25 3 22 -2 -7 -11 31
-9 41 3 5 4 2 5 -6 0 -9 -5 -12 -4 -7 3 4 6 13 9 21 6 8 -4 13 -9 10 -13 -2
-4 2 -8 10 -8 8 0 12 4 10 8 -3 4 2 10 11 13 8 3 13 2 10 -3 -3 -5 1 -11 9
-15 8 -3 14 -2 14 2 -3 21 3 24 17 6 13 -16 15 -16 10 -1 -5 16 -4 16 22 0 22
-14 25 -15 17 -2 -5 8 -2 6 8 -4 17 -19 17 -19 17 4 l1 24 15 -25 c8 -14 13
-18 10 -8 -3 11 1 15 12 13 9 -1 20 2 23 7 3 5 9 2 12 -7 4 -9 3 -14 -1 -11
-5 3 -9 -2 -9 -10 0 -9 4 -11 10 -5 5 5 15 7 22 5 7 -3 16 -1 20 5 4 7 -1 9
-12 5 -15 -5 -15 -4 -3 4 17 13 33 5 27 -13 -4 -8 6 -11 34 -9 22 2 45 6 52
10 9 5 9 4 0 -7 -15 -16 -17 -39 -3 -39 5 0 7 7 3 16 -5 14 -3 14 27 -1 18 -9
29 -12 26 -6 -4 6 -3 11 3 11 5 0 11 -5 13 -10 5 -15 46 -21 54 -8 5 7 2 8 -6
3 -9 -5 -11 -4 -6 4 6 9 11 9 22 0 17 -14 19 -23 2 -13 -6 4 -8 3 -5 -3 4 -6
19 -8 34 -6 61 9 86 7 78 -7 -3 -5 -1 -18 4 -27 6 -10 11 -14 11 -10 0 4 10 2
23 -5 26 -14 58 -18 51 -6 -3 4 0 8 5 8 6 0 11 -5 11 -11 0 -5 5 -7 10 -4 6 4
7 11 4 17 -5 7 -2 8 5 4 7 -5 10 -14 8 -20 -3 -7 1 -13 9 -13 7 0 11 4 8 8 -2
4 1 11 7 15 8 4 9 3 5 -4 -7 -12 27 -35 38 -25 3 3 6 -2 6 -11 0 -15 6 -17 30
-14 22 3 27 1 20 -7 -12 -15 -3 -25 16 -18 8 3 11 10 7 16 -3 6 -1 7 6 3 6 -4
9 -11 6 -16 -3 -5 -1 -11 5 -15 5 -3 10 1 10 9 0 8 4 18 10 21 6 4 7 -1 3 -12
-3 -10 -3 -15 2 -11 9 9 45 -9 45 -22 0 -6 -5 -10 -11 -10 -5 0 -7 5 -3 12 5
8 2 9 -10 5 -12 -5 -15 -3 -10 6 5 8 2 7 -9 -2 -18 -14 -22 -22 -9 -20 18 3
33 -2 28 -9 -2 -4 11 -7 30 -7 24 1 34 -3 34 -14 0 -11 3 -10 15 5 14 18 15
18 9 0 -6 -16 -4 -17 17 -11 21 7 22 6 10 -9 -13 -15 -12 -16 12 -7 20 8 26 7
24 -2 -1 -7 8 -11 20 -11 13 1 20 -2 18 -6 -3 -4 2 -13 10 -20 13 -10 19 -9
38 6 12 11 16 12 10 4 -10 -13 -8 -18 10 -30 21 -12 21 -12 7 5 -14 17 -13 17
5 8 11 -6 30 -9 42 -8 14 1 19 -3 16 -12 -3 -7 0 -13 6 -13 6 0 11 5 11 12 0
6 3 8 6 5 4 -4 2 -13 -4 -20 -12 -14 -6 -27 12 -27 6 0 4 5 -4 10 -11 8 -9 9
13 8 15 -1 27 -6 27 -10 0 -4 5 -8 11 -8 5 0 7 4 4 10 -3 6 1 7 9 4 9 -3 13
-11 9 -17 -3 -5 -1 -7 5 -3 5 3 12 3 15 -1 2 -5 2 -3 1 4 -2 7 1 15 7 18 5 4
8 1 7 -6 -2 -6 3 -14 11 -17 8 -2 11 0 8 5 -3 5 0 10 8 10 8 0 15 -6 15 -14 0
-7 -7 -13 -17 -13 -9 0 -14 -3 -10 -6 3 -4 14 -3 24 1 10 5 21 7 26 7 4 -1 7
3 7 9 0 6 7 3 16 -5 8 -9 20 -14 25 -11 5 4 9 -1 9 -10 0 -14 -2 -14 -24 0
-22 15 -24 15 -22 1 1 -9 8 -22 16 -29 12 -10 12 -9 1 6 -15 19 -2 24 16 6 8
-8 15 -4 27 12 9 13 16 19 16 13 0 -5 -8 -21 -17 -34 l-16 -25 25 23 c19 17
28 20 33 11 5 -8 4 -10 -3 -5 -8 5 -10 1 -5 -10 4 -11 8 -13 11 -6 2 7 8 10
13 6 13 -8 11 10 -3 26 -11 12 -10 12 4 2 13 -10 17 -10 21 0 4 11 6 10 6 0 1
-7 6 -10 13 -6 7 4 8 3 4 -5 -4 -6 -12 -8 -18 -5 -7 4 -8 2 -4 -4 4 -8 15 -8
31 -2 27 10 55 4 55 -12 0 -5 5 -6 10 -3 6 4 8 11 5 16 -3 5 1 6 9 3 9 -3 13
-10 10 -15 -3 -5 6 -5 19 0 30 12 88 11 81 0 -5 -9 34 -3 71 11 19 7 24 7 19
-2 -5 -7 -2 -9 8 -5 9 3 21 0 28 -6 10 -9 11 -9 6 0 -3 6 -2 14 3 17 5 4 11
-2 13 -11 3 -16 4 -16 18 -2 13 15 16 15 28 0 8 -9 10 -10 6 -2 -5 11 -3 13 9
8 11 -4 17 -1 17 8 0 18 16 20 26 3 5 -7 3 -8 -6 -3 -8 5 -11 4 -6 -3 13 -22
35 -1 34 34 -1 21 -5 31 -12 27 -8 -5 -8 -3 0 8 12 16 13 39 2 39 -5 0 -11 0
-14 0 -4 0 -2 -6 4 -13 9 -10 6 -13 -13 -13 -17 0 -22 3 -15 10 13 13 13 29 1
22 -14 -9 -7 19 9 40 12 16 12 17 0 7 -18 -17 -38 -17 -22 -1 15 15 16 32 2
23 -13 -8 -13 8 0 21 7 7 6 11 -4 11 -8 0 -13 -4 -10 -8 2 -4 0 -10 -6 -14 -5
-3 -10 0 -10 8 0 18 -24 29 -47 20 -12 -5 -14 -3 -8 8 8 12 6 12 -8 0 -14 -11
-17 -11 -18 0 -1 8 -1 18 0 22 1 5 -3 6 -8 2 -6 -3 -7 -13 -4 -22 4 -11 3 -14
-5 -9 -23 14 -51 14 -62 1 -9 -11 -17 -12 -31 -4 -10 5 -19 6 -19 2 0 -4 -5
-1 -10 7 -7 11 -10 11 -10 2 0 -7 -5 -10 -12 -6 -6 4 -17 -1 -25 -11 -7 -11
-13 -15 -13 -9 0 5 -10 20 -21 34 l-21 25 16 -27 c17 -29 22 -53 6 -28 -9 13
-11 13 -20 0 -9 -13 -10 -13 -10 0 0 13 -1 13 -11 0 -9 -13 -10 -13 -6 0 2 8
10 14 16 13 22 -6 10 14 -16 26 -25 10 -26 10 -10 -3 11 -8 14 -17 8 -20 -5
-4 -12 -2 -16 4 -8 13 -25 13 -25 0 0 -5 5 -9 11 -7 6 1 13 -4 15 -11 1 -7 0
-8 -3 -2 -3 7 -10 7 -21 -2 -10 -8 -13 -9 -9 -1 4 6 1 18 -7 26 -8 8 -12 18
-8 22 4 4 0 5 -8 3 -8 -2 -21 -12 -28 -23 -10 -16 -12 -16 -8 -2 5 16 -4 21
-31 18 -8 -1 -10 5 -7 16 5 17 5 17 -6 0 -9 -14 -15 -16 -26 -6 -11 9 -14 8
-15 -7 -1 -14 -3 -13 -9 6 -6 19 -8 20 -9 6 -1 -16 -3 -17 -18 -5 -9 8 -14 9
-10 2 4 -7 1 -10 -9 -9 -9 1 -23 13 -30 27 -13 23 -14 23 -11 2 1 -12 -1 -22
-5 -22 -5 -1 -8 2 -7 5 2 14 -26 22 -42 13 -12 -6 -20 -5 -24 1 -4 6 -10 8
-14 6 -4 -3 -8 1 -8 9 0 13 3 13 17 0 16 -14 18 -14 24 0 9 25 7 32 -4 15 -8
-12 -12 -12 -18 -2 -5 8 -16 10 -28 5 -17 -6 -18 -5 -4 13 11 15 11 16 0 7
-17 -15 -44 -17 -35 -3 3 6 2 10 -4 10 -5 0 -11 -5 -13 -11 -3 -9 -10 -9 -26
0 -13 7 -19 17 -16 23 4 7 3 8 -4 4 -7 -4 -12 -15 -12 -24 0 -14 -2 -15 -9 -2
-6 8 -7 19 -3 25 3 6 0 6 -9 -1 -26 -21 -73 -3 -49 19 10 10 11 9 5 -3 -5 -8
-5 -12 0 -8 4 4 13 3 20 -2 8 -7 12 -5 12 5 0 8 -4 12 -8 10 -3 -3 -12 1 -18
8 -12 15 -39 16 -60 2 -9 -5 -12 -4 -8 2 6 9 -2 13 -43 24 -3 0 -13 5 -22 10
-12 7 -20 4 -26 -8 -9 -14 -10 -14 -17 6 -3 12 -11 18 -17 15 -7 -5 -8 -2 -3
6 6 10 11 9 21 -5 12 -16 13 -16 11 3 0 12 -7 19 -17 17 -8 -1 -27 4 -41 11
-14 7 -30 9 -35 5 -5 -5 -22 0 -39 10 -16 10 -25 19 -20 19 6 0 21 -8 34 -17
14 -9 21 -12 18 -6 -4 6 -28 23 -52 37 -25 14 -43 21 -40 15 4 -5 1 -9 -4 -9
-6 0 -11 5 -11 10 0 6 -5 10 -11 10 -5 0 -7 -4 -4 -10 3 -5 1 -10 -4 -10 -6 0
-11 7 -11 15 0 8 -5 15 -11 15 -5 0 -7 -4 -4 -10 3 -5 0 -7 -8 -4 -8 3 -17 14
-20 25 -4 14 -10 17 -24 12 -14 -5 -16 -4 -8 8 6 8 3 7 -6 -3 -15 -15 -18 -16
-23 -2 -3 8 -2 12 4 9 6 -3 10 -1 10 4 0 15 -13 14 -29 -1 -11 -11 -13 -10 -8
5 5 14 3 16 -10 8 -12 -6 -21 -4 -31 7 -13 16 -13 16 -8 0 7 -23 4 -22 -22 1
-12 10 -19 21 -15 25 3 3 4 6 1 6 -3 0 -12 -8 -19 -17 -12 -14 -12 -16 0 -8 9
5 12 4 7 -3 -3 -5 -1 -12 6 -14 7 -3 5 -7 -6 -11 -9 -4 -15 -3 -12 2 3 4 -3
16 -14 26 -11 10 -20 15 -20 10 0 -4 -6 -2 -14 4 -10 8 -16 9 -19 1 -3 -6 -4
-5 -3 2 4 18 27 17 50 -1 18 -15 18 -15 5 7 -8 12 -20 20 -26 17 -7 -2 -13 1
-13 8 0 8 -3 8 -9 -2 -6 -9 -11 -10 -15 -2 -5 8 -13 8 -27 1 -15 -9 -19 -7
-20 7 -1 12 -3 10 -9 -7 -5 -17 -8 -19 -9 -7 -1 9 -6 17 -12 17 -5 0 -8 -4 -5
-8 3 -5 -1 -9 -8 -9 -8 0 -12 6 -9 12 4 12 -42 13 -54 2 -7 -8 -43 25 -37 35
6 10 0 11 -9 1z m-52 -33 c3 -5 1 -10 -4 -10 -6 0 -11 5 -11 10 0 6 2 10 4 10
3 0 8 -4 11 -10z m242 -29 c0 -11 -5 -18 -9 -15 -4 3 -5 11 -1 19 7 21 12 19
10 -4z m268 -81 c-3 -5 -12 -10 -18 -10 -7 0 -6 4 3 10 19 12 23 12 15 0z
m-762 -45 c-3 -9 -8 -14 -10 -11 -3 3 -2 9 2 15 9 16 15 13 8 -4z m404 -67
c-3 -8 -6 -5 -6 6 -1 11 2 17 5 13 3 -3 4 -12 1 -19z m31 -3 c-3 -3 -9 2 -12
12 -6 14 -5 15 5 6 7 -7 10 -15 7 -18z m79 -11 c-3 -3 -12 -4 -19 -1 -8 3 -5
6 6 6 11 1 17 -2 13 -5z m595 -28 c3 2 11 -2 17 -10 17 -20 -9 -16 -40 7 -20
14 -20 16 -3 8 12 -6 24 -8 26 -5z m-452 -2 c0 -8 -19 -13 -24 -6 -3 5 1 9 9
9 8 0 15 -2 15 -3z m134 -53 c3 -5 -1 -11 -9 -15 -8 -3 -17 0 -21 6 -4 7 -3 8
4 4 7 -4 12 -2 12 3 0 13 7 14 14 2z m163 -47 c-3 -3 -12 -4 -19 -1 -8 3 -5 6
6 6 11 1 17 -2 13 -5z m769 -88 c2 -13 1 -13 -3 -1 -2 8 -9 13 -14 10 -5 -4
-9 -1 -9 5 0 18 25 5 26 -14z m294 4 c0 -4 14 -6 30 -5 17 1 32 -1 35 -4 2 -4
-13 -7 -33 -6 -20 1 -42 -2 -49 -7 -12 -10 -28 6 -19 20 6 10 36 11 36 2z
m-120 -7 c0 -5 -5 -15 -10 -23 -7 -12 -9 -10 -7 8 1 19 17 33 17 15z m42 -4
c2 -2 1 -3 -1 -2 -2 2 -9 -2 -16 -7 -8 -7 -12 -5 -12 4 0 12 22 16 29 5z m182
3 c3 -5 -1 -9 -9 -9 -8 0 -15 4 -15 9 0 4 4 8 9 8 6 0 12 -4 15 -8z m-844 -66
c0 -3 -4 -8 -10 -11 -5 -3 -10 -1 -10 4 0 6 5 11 10 11 6 0 10 -2 10 -4z m917
-91 c0 -8 -4 -15 -9 -15 -10 0 -11 14 -1 23 9 10 10 9 10 -8z"/>
<path d="M1475 2370 c-8 -13 3 -30 18 -29 9 0 9 2 0 6 -7 2 -13 9 -13 14 0 6
5 7 12 3 7 -4 8 -3 4 4 -9 15 -13 15 -21 2z"/>
<path d="M2191 2297 c2 -1 13 -9 24 -17 19 -14 19 -14 6 3 -7 9 -18 17 -24 17
-6 0 -8 -1 -6 -3z"/>
<path d="M1818 2233 c6 -2 9 -10 6 -15 -4 -7 -2 -8 5 -4 13 9 5 26 -12 25 -9
0 -8 -2 1 -6z"/>
<path d="M2275 2200 c4 -6 11 -8 16 -5 14 9 11 15 -7 15 -8 0 -12 -5 -9 -10z"/>
<path d="M1033 2046 c-3 -6 -3 -8 2 -4 4 4 14 3 22 -3 10 -9 13 -8 13 3 0 17
-28 20 -37 4z"/>
<path d="M2234 1920 c0 -13 4 -16 10 -10 7 7 7 13 0 20 -6 6 -10 3 -10 -10z"/>
<path d="M2476 1922 c-3 -5 1 -9 9 -9 8 0 12 4 9 9 -3 4 -7 8 -9 8 -2 0 -6 -4
-9 -8z"/>
<path d="M290 1862 l11 -23 -28 18 c-24 15 -26 15 -15 1 10 -12 10 -18 1 -24
-7 -4 -9 -3 -6 2 3 6 -3 16 -14 22 -19 12 -19 11 -8 -10 6 -13 8 -20 4 -16
-11 11 -36 -12 -28 -25 3 -6 1 -7 -6 -3 -6 4 -9 11 -6 16 3 4 -2 13 -10 20
-11 9 -17 7 -31 -9 -10 -11 -22 -17 -27 -14 -6 3 -7 1 -3 -5 6 -10 -15 -27
-39 -32 -23 -4 -14 -7 14 -5 17 1 28 -1 25 -6 -3 -5 -10 -7 -15 -4 -5 4 -9 1
-9 -5 0 -6 -4 -9 -8 -6 -4 2 -8 -4 -8 -14 0 -16 3 -17 16 -7 13 10 13 10 3 -4
-7 -9 -10 -19 -6 -23 4 -4 0 -4 -10 0 -10 3 -17 1 -17 -5 0 -6 6 -11 13 -11 6
-1 1 -7 -12 -14 -20 -11 -21 -14 -7 -19 10 -4 15 -11 12 -16 -4 -5 -1 -12 4
-14 6 -3 5 -4 -2 -2 -7 1 -12 9 -10 16 3 12 1 12 -10 0 -10 -10 -10 -15 -1
-18 7 -2 9 -12 6 -21 -4 -15 -3 -15 6 -2 10 13 12 13 21 0 9 -13 10 -13 10 0
0 9 3 11 8 4 12 -17 42 -25 36 -10 -3 8 -1 17 5 21 6 3 14 -1 17 -10 5 -12 9
-13 14 -5 7 11 27 17 58 19 7 1 11 5 7 10 -3 5 0 13 6 17 8 5 9 3 4 -6 -5 -8
-3 -11 6 -8 8 3 13 11 11 18 -3 11 0 11 12 0 13 -10 16 -10 16 1 0 12 2 12 9
0 5 -8 7 -20 4 -27 -6 -16 16 -29 29 -16 6 6 6 12 -3 17 -8 5 -10 4 -5 -3 4
-7 2 -12 -3 -12 -15 0 -14 13 4 36 11 13 13 14 9 3 -3 -11 2 -18 15 -22 24 -6
27 3 9 22 -11 11 -9 12 7 4 27 -13 44 -11 55 7 7 12 9 10 8 -6 -2 -14 -9 -21
-22 -20 -10 1 -21 -6 -23 -14 -4 -12 -3 -12 5 -2 13 19 16 19 37 2 15 -12 17
-12 10 -1 -6 11 -4 13 8 8 10 -3 17 -2 17 3 0 6 5 10 11 10 5 0 8 -4 5 -8 -2
-4 -1 -14 4 -22 7 -11 9 -9 7 8 -1 25 -37 53 -37 31 0 -7 -3 -10 -6 -6 -3 3
-3 10 1 16 4 8 15 6 34 -4 16 -8 32 -11 37 -7 5 4 3 -1 -4 -10 -12 -14 -10
-16 9 -11 17 5 20 3 14 -8 -8 -12 -6 -12 8 0 14 11 17 11 17 0 0 -11 2 -11 10
1 8 12 10 12 10 1 0 -8 3 -11 7 -8 3 4 12 2 19 -4 9 -7 20 -6 38 6 14 10 27
15 27 11 1 -3 2 -10 3 -15 0 -5 5 -13 10 -18 6 -5 6 -2 1 6 -6 11 -4 13 8 8
11 -4 14 -2 11 8 -4 9 1 12 13 10 10 -2 22 -4 26 -4 5 -1 5 -6 1 -12 -4 -8 -9
-7 -15 2 -6 10 -9 10 -9 2 0 -17 17 -25 26 -12 4 8 9 7 15 -2 7 -11 9 -11 9
-1 0 7 5 10 12 6 7 -4 8 -3 4 5 -4 6 -12 9 -17 6 -5 -4 -9 -2 -9 4 0 5 9 9 19
8 11 0 18 -4 16 -7 -2 -3 0 -12 6 -20 5 -9 9 -10 9 -4 0 17 28 25 36 12 4 -6
3 -8 -4 -4 -6 3 -13 2 -16 -3 -4 -5 2 -8 11 -6 10 2 18 4 18 6 0 1 10 3 22 4
12 1 20 -2 17 -6 -3 -5 0 -9 6 -9 6 0 8 -5 4 -12 -4 -7 -3 -8 5 -4 6 4 8 12 5
18 -4 7 -2 8 4 4 7 -4 12 -1 12 6 0 10 3 9 11 -2 8 -11 12 -12 16 -2 2 6 9 10
14 7 5 -4 3 -12 -4 -20 -8 -9 -16 -10 -24 -3 -18 14 -16 0 1 -17 12 -12 15
-12 20 1 3 9 13 14 20 11 8 -3 17 -2 20 4 2 5 3 4 1 -3 -1 -7 -8 -12 -14 -10
-17 3 -13 -15 5 -22 8 -3 13 -2 10 3 -3 5 1 12 10 15 8 3 12 2 9 -4 -3 -6 -1
-10 4 -10 6 0 11 6 11 13 0 6 5 4 11 -6 6 -9 14 -15 20 -12 5 4 9 1 9 -6 0 -9
3 -9 14 0 11 9 16 9 22 0 5 -8 3 -9 -6 -4 -9 5 -11 4 -6 -3 4 -8 15 -8 31 -2
13 5 27 6 29 1 7 -11 -3 -20 -17 -17 -7 2 -9 1 -4 -1 4 -3 4 -10 1 -16 -5 -8
-2 -8 7 1 16 14 33 16 24 2 -3 -6 1 -7 10 -3 13 4 14 7 3 14 -8 5 -9 11 -3 16
6 5 9 6 8 4 -5 -8 19 -31 28 -26 4 3 15 -5 24 -19 11 -17 22 -22 38 -19 17 4
19 2 8 -5 -11 -8 -9 -10 10 -11 51 -2 68 -6 66 -16 -1 -5 6 -9 16 -7 9 2 17
-2 17 -8 0 -6 4 -8 10 -5 6 4 7 -1 3 -11 -5 -13 -3 -15 8 -8 22 13 39 13 39 0
0 -17 44 -36 70 -31 11 2 18 0 15 -6 -4 -5 -11 -7 -16 -4 -5 3 -6 -1 -3 -10 5
-12 9 -13 20 -4 8 6 14 7 14 2 0 -13 43 -11 53 2 4 6 5 -6 3 -25 l-5 -35 14
30 c11 24 14 26 15 10 0 -17 2 -17 10 -5 9 13 10 13 11 0 3 -31 4 -35 14 -35
5 0 8 6 7 14 -2 7 1 10 8 6 7 -4 9 -18 5 -33 l-6 -26 21 25 c12 13 19 19 16
12 -4 -6 -1 -15 6 -19 16 -10 49 -13 43 -4 -2 3 9 6 25 5 22 0 26 -3 17 -13
-5 -7 -6 -12 -1 -11 21 4 28 -2 14 -11 -11 -8 -6 -9 18 -5 26 4 32 2 26 -7 -5
-8 -1 -7 11 2 17 14 18 13 12 -3 -5 -13 -3 -17 5 -14 7 2 12 10 10 16 -1 7 2
10 7 6 6 -3 8 -11 5 -18 -3 -8 4 -13 20 -13 14 0 22 4 20 8 -3 5 -10 6 -15 3
-5 -4 -9 -1 -9 4 0 15 16 14 33 -3 11 -12 17 -12 28 -3 8 7 10 8 6 3 -3 -5 1
-15 10 -21 14 -10 23 -9 48 5 24 14 32 15 32 4 0 -7 -3 -11 -7 -9 -3 2 -12 -1
-20 -6 -11 -7 -8 -8 12 -5 19 3 28 0 30 -12 3 -13 5 -12 10 6 3 12 3 20 -1 17
-4 -2 -8 2 -8 9 0 11 5 11 26 0 19 -10 28 -10 39 -2 10 9 12 8 10 -2 -2 -7 3
-15 11 -18 8 -3 11 0 7 7 -4 6 0 14 10 18 9 3 20 0 25 -8 26 -44 28 -44 41
-30 11 11 11 13 -1 6 -9 -5 -12 -4 -7 3 4 7 2 12 -4 12 -6 0 -8 5 -5 11 5 6
11 4 19 -7 14 -19 32 -3 21 19 -8 15 23 -23 35 -43 7 -13 11 -13 22 -1 11 12
11 13 -1 6 -9 -5 -12 -4 -7 3 4 7 2 12 -4 12 -6 0 -8 5 -5 10 4 6 14 1 25 -12
15 -19 20 -20 33 -10 12 10 17 10 23 1 5 -8 3 -10 -7 -4 -11 6 -12 5 -2 -5 18
-19 30 -3 15 20 -7 12 -8 21 -2 25 6 4 9 1 8 -7 -2 -7 3 -12 10 -10 8 1 11 -1
9 -5 -3 -5 2 -15 11 -22 14 -13 15 -13 10 6 -4 14 0 24 11 29 28 12 41 13 34
1 -4 -6 0 -8 9 -4 9 3 20 1 26 -5 6 -6 15 -7 22 -3 13 8 12 225 -1 225 -5 0
-9 -6 -9 -12 0 -9 -4 -8 -10 2 -9 13 -11 13 -20 0 -5 -8 -10 -10 -10 -4 0 7
-7 15 -16 18 -13 5 -14 3 -6 -7 8 -10 6 -13 -9 -14 -10 -1 -19 2 -19 8 0 5 -5
9 -11 9 -5 0 -7 -5 -3 -12 5 -7 3 -8 -7 -2 -23 14 -58 12 -64 -5 -6 -14 -8
-14 -21 3 -12 17 -14 18 -14 3 0 -9 -5 -17 -11 -17 -5 0 -8 4 -4 9 3 5 1 12
-5 16 -5 3 -10 1 -10 -4 0 -6 -5 -11 -11 -11 -5 0 -8 4 -5 8 3 5 -1 9 -8 9 -9
0 -12 -7 -9 -16 5 -13 3 -13 -7 -4 -7 6 -19 9 -28 6 -8 -4 -13 -2 -9 3 3 6
-15 10 -44 10 -27 0 -49 -4 -49 -10 0 -6 -5 -5 -12 2 -7 7 -17 12 -22 12 -6 0
-4 -5 4 -10 12 -7 10 -9 -7 -7 -12 0 -19 5 -17 9 3 4 1 8 -5 8 -5 0 -12 -6
-14 -12 -4 -10 -6 -10 -6 0 -1 6 -8 12 -17 12 -8 0 -13 -4 -10 -9 7 -11 -13
-9 -33 3 -8 5 -26 10 -40 10 -14 1 -36 7 -47 14 -12 6 -24 9 -27 5 -4 -3 -14
0 -23 7 -13 11 -17 11 -24 1 -5 -9 -10 -10 -14 -2 -4 6 -3 11 2 11 5 0 9 6 9
14 0 13 -3 13 -21 0 -27 -19 -42 -18 -26 1 11 13 10 15 -1 10 -36 -12 -91 -12
-96 1 -8 21 -26 17 -19 -3 5 -15 4 -15 -9 1 -8 11 -21 21 -29 22 -8 1 -22 6
-31 11 -16 9 -16 10 -1 16 10 4 15 3 12 -2 -3 -5 1 -11 9 -15 9 -3 15 0 15 8
0 19 -20 25 -47 15 -14 -5 -25 -4 -29 3 -5 7 -3 8 6 3 9 -6 11 -4 5 4 -5 9
-10 10 -18 2 -7 -7 -16 -4 -28 11 -15 16 -22 18 -33 9 -10 -9 -16 -8 -26 4 -7
8 -16 13 -20 10 -4 -3 -14 3 -21 12 -8 9 -9 14 -3 10 6 -3 11 0 11 8 0 19 -2
19 -21 -1 -9 -8 -16 -11 -16 -5 0 6 -5 11 -11 11 -5 0 -8 -4 -5 -8 2 -4 -4 -8
-14 -8 -10 0 -16 4 -13 9 3 5 -3 7 -12 5 -11 -2 -19 4 -20 14 -3 16 -1 16 20
2 19 -12 28 -13 42 -4 16 10 16 11 1 6 -20 -6 -50 3 -44 13 3 4 -7 8 -20 9
-17 1 -23 -2 -18 -10 4 -7 3 -8 -4 -4 -6 4 -9 13 -5 21 5 15 -16 20 -60 17
-15 -2 -17 3 -11 20 7 23 7 23 -13 -1 l-19 -24 2 32 c1 17 -2 29 -6 26 -5 -3
-11 -1 -14 4 -4 5 -18 8 -32 5 -19 -3 -24 -1 -18 8 4 7 -2 4 -14 -6 -12 -11
-25 -16 -29 -13 -3 4 -1 7 5 7 7 0 12 5 12 11 0 5 -4 8 -9 4 -5 -3 -12 -1 -16
5 -3 5 -15 15 -25 20 -16 8 -18 8 -14 -4 3 -9 11 -14 16 -13 6 1 12 -4 13 -11
2 -7 1 -8 -2 -2 -2 5 -9 8 -14 4 -5 -3 -14 6 -21 20 -6 14 -15 26 -20 26 -5 0
-6 5 -2 11 3 6 -5 3 -20 -6 -21 -14 -25 -14 -21 -3 4 9 0 15 -9 15 -8 0 -13
-4 -10 -9 3 -4 -2 -8 -11 -8 -12 0 -15 5 -11 18 5 15 4 15 -6 2 -16 -19 -55
-22 -55 -4 0 10 4 11 13 3 8 -7 14 -6 20 2 4 7 3 9 -4 5 -6 -3 -13 -2 -17 3
-3 6 -12 8 -20 5 -8 -4 -13 -10 -10 -14 3 -5 0 -12 -6 -16 -8 -4 -9 -3 -5 4 9
15 1 15 -27 1 -19 -9 -18 -7 3 10 14 11 29 21 34 21 5 0 6 3 3 6 -4 4 -13 1
-22 -6 -8 -7 -15 -9 -15 -5 0 4 -8 1 -17 -6 -14 -12 -16 -12 -11 2 3 9 2 22
-2 29 -7 11 -11 11 -24 1 -14 -12 -20 -9 -18 9 0 3 -8 7 -19 7 -10 1 -19 -3
-19 -9 0 -6 3 -8 7 -5 3 4 15 -1 25 -10 15 -14 21 -15 27 -4 6 9 11 10 15 2 4
-6 2 -11 -4 -11 -6 0 -8 -5 -5 -10 11 -18 -18 -6 -38 15 -18 20 -18 20 -12 -5
l6 -25 -14 24 c-9 15 -17 20 -21 12 -4 -6 -13 -11 -19 -11 -7 0 -6 4 3 10 15
9 14 11 -12 14 -7 1 -12 8 -10 16 3 11 0 11 -12 0 -19 -15 -21 -24 -4 -14 7 4
8 3 4 -5 -4 -6 -12 -9 -17 -5 -5 3 -7 9 -4 14 3 4 -2 10 -10 13 -9 4 -12 1 -9
-7 3 -7 -2 -13 -10 -13 -8 0 -13 4 -11 8 3 4 -11 9 -29 11 -19 2 -33 1 -30 -3
2 -4 -3 -10 -12 -13 -8 -3 -12 -2 -9 4 4 6 -5 10 -20 10 -18 0 -24 -4 -19 -12
6 -10 5 -10 -7 -2 -8 7 -27 12 -44 12 -16 0 -36 -5 -44 -12 -12 -9 -13 -7 -7
9 5 15 4 17 -5 8 -6 -6 -18 -9 -27 -6 -9 4 -13 2 -9 -4 3 -5 0 -10 -8 -10 -8
0 -11 5 -8 10 4 6 0 8 -9 4 -9 -3 -21 0 -28 6 -10 10 -10 7 0 -11z m-113 -37
c0 -8 -4 -12 -8 -10 -3 3 -12 -2 -19 -10 -10 -12 -9 -15 5 -15 10 0 16 -3 12
-6 -3 -4 -14 -4 -23 0 -15 6 -15 9 6 31 28 29 27 29 27 10z m858 -45 c3 -5 1
-10 -4 -10 -6 0 -11 5 -11 10 0 6 2 10 4 10 3 0 8 -4 11 -10z m174 -64 c9 -11
9 -16 0 -22 -8 -4 -9 -3 -5 4 4 7 2 12 -3 12 -6 0 -11 5 -11 10 0 14 5 13 19
-4z m-641 -57 c-5 -18 31 -19 42 -1 9 14 10 14 5 -4 -5 -19 -2 -21 22 -16 27
4 27 4 11 -13 -14 -15 -20 -16 -33 -5 -9 7 -27 14 -41 14 -13 1 -24 5 -24 9 0
4 0 12 0 17 0 6 5 10 10 10 6 0 9 -5 8 -11z m732 1 c8 -5 11 -10 5 -10 -5 0
-17 5 -25 10 -8 5 -10 10 -5 10 6 0 17 -5 25 -10z m-602 -35 c-3 -3 -9 2 -12
12 -6 14 -5 15 5 6 7 -7 10 -15 7 -18z m857 -85 c3 -5 2 -10 -4 -10 -5 0 -13
5 -16 10 -3 6 -2 10 4 10 5 0 13 -4 16 -10z m-61 -146 c3 -8 2 -12 -4 -9 -6 3
-10 10 -10 16 0 14 7 11 14 -7z m961 -3 c-9 -8 -36 -10 -30 -2 2 4 11 8 20 8
8 0 13 -3 10 -6z m-685 -115 c0 -3 -4 -8 -10 -11 -5 -3 -10 -1 -10 4 0 6 5 11
10 11 6 0 10 -2 10 -4z m97 -26 c-1 -12 -5 -16 -10 -11 -5 5 -6 14 -3 20 11
16 15 13 13 -9z m191 -52 c-2 -5 -8 -9 -13 -9 -5 0 -11 4 -13 9 -1 5 4 9 13 9
9 0 14 -4 13 -9z m352 -18 c0 -5 -2 -10 -4 -10 -3 0 -8 5 -11 10 -3 6 -1 10 4
10 6 0 11 -4 11 -10z"/>
<path d="M706 1867 c3 -10 9 -15 12 -12 3 3 0 11 -7 18 -10 9 -11 8 -5 -6z"/>
<path d="M192 1851 c4 -13 18 -16 19 -4 0 4 -5 9 -11 12 -7 2 -11 -2 -8 -8z"/>
<path d="M1582 1811 c-11 -7 -11 -9 0 -14 9 -3 15 1 15 9 0 8 -1 14 -1 14 -1
0 -7 -4 -14 -9z"/>
<path d="M2556 1798 c3 -5 10 -6 15 -3 13 9 11 12 -6 12 -8 0 -12 -4 -9 -9z"/>
<path d="M1715 1770 c-4 -6 -4 -14 -1 -17 3 -4 6 -1 6 6 0 7 4 10 10 6 5 -3 6
-13 3 -23 -5 -14 -3 -15 8 -4 11 10 11 15 -3 28 -11 12 -18 13 -23 4z"/>
<path d="M2145 1660 c-3 -6 1 -7 9 -4 18 7 21 14 7 14 -6 0 -13 -4 -16 -10z"/>
<path d="M266 1624 c-11 -8 -13 -14 -7 -19 6 -3 11 -1 11 6 0 8 5 8 18 -2 9
-7 14 -9 10 -5 -4 5 -3 14 2 21 13 16 -12 16 -34 -1z"/>
<path d="M196 1602 c-3 -5 1 -9 9 -9 8 0 12 4 9 9 -3 4 -7 8 -9 8 -2 0 -6 -4
-9 -8z"/>
<path d="M1476 1594 c-4 -10 -4 -15 0 -11 4 4 16 -1 27 -10 11 -10 17 -12 13
-5 -5 8 -1 12 11 12 15 0 16 2 3 10 -9 6 -17 5 -21 -2 -4 -6 -10 -4 -16 7 -9
16 -10 16 -17 -1z"/>
<path d="M875 1590 c3 -5 8 -10 11 -10 2 0 4 5 4 10 0 6 -5 10 -11 10 -5 0 -7
-4 -4 -10z"/>
<path d="M1698 1512 c4 -11 1 -13 -8 -7 -9 5 -11 4 -6 -3 10 -16 14 -15 25 6
7 14 6 19 -4 19 -7 0 -11 -7 -7 -15z"/>
<path d="M1204 1488 c-3 -5 -3 -12 0 -15 3 -4 6 -2 6 4 0 5 7 10 15 10 9 0 14
-6 11 -14 -3 -7 -1 -13 5 -13 6 0 9 7 7 17 -3 18 -35 27 -44 11z"/>
<path d="M1730 1485 c0 -8 2 -15 4 -15 2 0 6 7 10 15 3 8 1 15 -4 15 -6 0 -10
-7 -10 -15z"/>
<path d="M1880 1464 c0 -2 9 -8 19 -14 14 -7 22 -7 27 2 4 7 3 8 -4 4 -7 -4
-12 -3 -12 2 0 5 -7 9 -15 9 -8 0 -15 -2 -15 -3z"/>
<path d="M1947 1456 c-11 -27 41 -43 61 -20 4 4 -1 4 -10 1 -11 -4 -18 0 -21
11 -4 15 -5 15 -6 -1 0 -10 -5 -16 -11 -12 -5 3 -7 12 -3 20 3 8 3 15 0 15 -3
0 -7 -6 -10 -14z"/>
<path d="M1336 1432 c-3 -4 4 -9 15 -9 23 -2 25 3 4 10 -8 4 -16 3 -19 -1z"/>
<path d="M2020 1425 c0 -2 7 -8 15 -15 12 -10 15 -10 15 2 0 8 -7 15 -15 15
-8 0 -15 -1 -15 -2z"/>
<path d="M1394 1406 c1 -8 5 -18 8 -22 4 -3 5 1 4 10 -1 8 -5 18 -8 22 -4 3
-5 -1 -4 -10z"/>
<path d="M239 1361 c11 -7 11 -9 0 -14 -8 -3 -4 -4 8 -4 17 1 19 4 11 14 -6 7
-16 13 -22 13 -6 0 -5 -4 3 -9z"/>
<path d="M136 1347 c3 -10 9 -15 12 -12 3 3 0 11 -7 18 -10 9 -11 8 -5 -6z"/>
<path d="M44 1320 c2 -16 20 -14 24 2 3 10 2 10 -6 -1 -7 -9 -11 -10 -15 -2
-4 7 -5 8 -3 1z"/>
<path d="M1595 1320 c3 -5 8 -10 11 -10 2 0 4 5 4 10 0 6 -5 10 -11 10 -5 0
-7 -4 -4 -10z"/>
<path d="M1650 1300 c-9 -6 -10 -10 -3 -10 6 0 15 5 18 10 8 12 4 12 -15 0z"/>
<path d="M1160 1235 c-11 -13 -10 -14 4 -9 9 3 16 10 16 15 0 13 -6 11 -20 -6z"/>
<path d="M2507 1193 c-13 -12 -7 -22 10 -16 12 5 14 3 8 -7 -5 -9 -4 -11 4 -6
9 6 9 11 0 22 -13 16 -13 16 -22 7z"/>
<path d="M2223 1183 c4 -3 3 -11 -3 -17 -5 -7 -5 -17 2 -26 8 -12 9 -12 4 3
-6 19 4 23 21 6 9 -9 11 -8 10 2 -4 21 -17 39 -29 39 -6 0 -8 -3 -5 -7z"/>
<path d="M2145 1171 c-3 -5 0 -13 6 -17 8 -4 9 -3 5 4 -4 7 -3 12 3 12 5 0 12
-8 14 -17 4 -15 5 -15 6 2 1 17 3 18 12 5 8 -12 10 -12 7 -1 -5 16 -44 25 -53
12z"/>
<path d="M2315 1171 c-3 -6 -3 -11 2 -11 4 0 1 -5 -7 -10 -12 -7 -10 -9 6 -8
12 1 21 8 20 15 -3 19 -13 26 -21 14z"/>
<path d="M1634 1042 c4 -3 14 -7 22 -8 9 -1 13 0 10 4 -4 3 -14 7 -22 8 -9 1
-13 0 -10 -4z"/>
<path d="M1774 999 c-3 -6 -1 -16 4 -21 8 -8 11 -5 9 11 -1 24 -3 25 -13 10z"/>
<path d="M35 968 c4 -42 5 -43 16 -24 9 14 8 22 -4 33 -13 13 -14 12 -12 -9z"/>
<path d="M2300 925 c0 -5 5 -17 10 -25 9 -13 11 -13 20 0 5 8 10 20 10 25 0 6
-5 3 -10 -5 -9 -13 -11 -13 -20 0 -5 8 -10 11 -10 5z"/>
<path d="M186 605 c-3 -8 -1 -15 4 -15 6 0 10 7 10 15 0 8 -2 15 -4 15 -2 0
-6 -7 -10 -15z"/>
<path d="M2340 359 c0 -5 5 -7 10 -4 6 3 10 8 10 11 0 2 -4 4 -10 4 -5 0 -10
-5 -10 -11z"/>
<path d="M1965 89 c-4 -6 -4 -13 -1 -16 3 -4 6 -1 6 6 0 7 5 9 12 5 7 -4 8 -3
4 4 -9 15 -13 15 -21 1z"/>
<path d="M1865 50 c-4 -6 -11 -8 -16 -5 -5 4 -9 2 -9 -3 0 -6 7 -12 15 -16 8
-3 14 0 12 7 -1 7 4 11 11 9 8 -1 11 2 7 8 -8 13 -12 13 -20 0z"/>
</g>
</svg>
